<svg width="50" height="50" viewBox="0 0 50 50" fill="none" xmlns="http://www.w3.org/2000/svg">
<path d="M41.5307 4.9239V4.4239H41.0307H36.1068C35.4803 4.4239 34.9655 3.90917 34.9655 3.2826C34.9655 2.65603 35.4803 2.1413 36.1068 2.1413H41.0307C42.56 2.1413 43.8133 3.39461 43.8133 4.9239V9.84779C43.8133 10.4744 43.2986 10.9891 42.672 10.9891C42.0455 10.9891 41.5307 10.4744 41.5307 9.84779V4.9239ZM46.4749 22.535C46.8169 22.1703 46.8168 22.1702 46.8167 22.1701L46.816 22.1694L46.8133 22.1669L46.8026 22.1568L46.7601 22.117L46.5945 21.9618L45.966 21.3725C45.4244 20.8649 44.6506 20.1395 43.7217 19.269C41.8638 17.5281 39.3855 15.2063 36.9036 12.8831C34.4217 10.56 31.936 8.23539 30.0635 6.48879C29.1273 5.61556 28.344 4.88646 27.7911 4.37419C27.5147 4.11818 27.2951 3.91566 27.1426 3.77619C27.0665 3.70667 27.0058 3.65162 26.9625 3.61307C26.9412 3.59413 26.9219 3.57712 26.9062 3.56375C26.8988 3.55747 26.8886 3.54891 26.8777 3.54038C26.8727 3.53642 26.863 3.52888 26.8508 3.5204C26.8501 3.51991 26.8493 3.51936 26.8484 3.51875C26.2263 3.06473 25.4566 2.7826 24.6177 2.7826C23.7005 2.7826 22.8787 3.12253 22.2323 3.65457C22.2254 3.65993 22.2201 3.66427 22.2175 3.66637C22.2087 3.67367 22.2 3.68115 22.1939 3.68656C22.1804 3.69834 22.1631 3.71392 22.1432 3.73194C22.1027 3.76854 22.0447 3.82175 21.9708 3.88979C21.8228 4.02619 21.6077 4.22557 21.3355 4.47859C20.7909 4.9848 20.0159 5.70742 19.0876 6.57412C17.2309 8.30761 14.7601 10.6184 12.2909 12.9288C9.82174 15.2393 7.3541 17.5496 5.50377 19.2823L3.2682 21.376L2.64195 21.9626L2.47697 22.1171L2.43467 22.1567L2.42396 22.1668L2.42127 22.1693L2.42059 22.1699C2.42044 22.1701 2.42037 22.1701 2.7622 22.535L2.42036 22.1701L2.41832 22.1721C2.20442 22.3747 1.91925 22.4782 1.64611 22.4782C1.33569 22.4782 1.03019 22.3512 0.818732 22.1175L0.818758 22.1175L0.814679 22.1131C0.375446 21.6392 0.401653 20.9183 0.857991 20.4848L0.859608 20.4833L0.870328 20.4732L0.91268 20.4334L1.07788 20.2782L1.70494 19.689L3.94345 17.5854L10.7395 11.199C15.4939 6.73107 20.2713 2.24119 20.6475 1.88595C21.7156 1.00307 23.2036 0.5 24.6177 0.5C26.0318 0.5 27.5199 1.00309 28.588 1.88598C28.9644 2.24138 33.7422 6.73118 38.4968 11.199L45.2934 17.5855L47.5321 19.689L48.1592 20.2782L48.3244 20.4335L48.3668 20.4733L48.3775 20.4833L48.3791 20.4848C48.3794 20.4851 48.3797 20.4854 48.3801 20.4857C48.8355 20.9193 48.8614 21.6395 48.4224 22.1131L48.4224 22.1131L48.4184 22.1175C48.2069 22.3512 47.9014 22.4782 47.591 22.4782C47.3179 22.4782 47.0327 22.3747 46.8188 22.1721L46.8169 22.1703L46.4749 22.535ZM30.6829 45.9564V46.4564H31.1829H37.7481C39.8297 46.4564 41.5307 44.7553 41.5307 42.6738V24.6195C41.5307 23.9929 42.0455 23.4782 42.672 23.4782C43.2986 23.4782 43.8133 23.9929 43.8133 24.6195V42.6738C43.8133 46.0249 41.0993 48.739 37.7481 48.739H11.4873C8.13621 48.739 5.42215 46.0249 5.42215 42.6738V24.6195C5.42215 23.9929 5.93687 23.4782 6.56344 23.4782C7.19002 23.4782 7.70474 23.9929 7.70474 24.6195V42.6738C7.70474 44.7553 9.40577 46.4564 11.4873 46.4564H18.0525H18.5525V45.9564V31.1847C18.5525 29.6554 19.8059 28.4021 21.3351 28.4021H27.9003C29.4296 28.4021 30.6829 29.6554 30.6829 31.1847V45.9564ZM27.9003 46.4564H28.4003V45.9564V31.1847V30.6847H27.9003H21.3351H20.8351V31.1847V45.9564V46.4564H21.3351H27.9003Z" fill="black" stroke="black"/>
</svg>
