<svg width="50" height="53" viewBox="0 0 50 53" fill="none" xmlns="http://www.w3.org/2000/svg">
<path d="M47.9248 21.1762C47.0304 20.0622 45.7888 19.2799 44.3978 18.9542C42.8521 18.545 41.21 18.716 39.7818 19.4355C38.7951 19.9472 37.8375 20.5129 36.9134 21.1305V6.75192C36.9475 5.87978 36.8054 5.00974 36.4957 4.19367C36.1862 3.37763 35.7153 2.6323 35.1114 2.00216C34.5076 1.37201 33.7828 0.869969 32.9808 0.525979C32.1786 0.182007 31.3153 0.00310898 30.4425 0C28.6933 0.0514474 27.0341 0.787941 25.8225 2.05082C24.6108 3.31369 23.9436 5.00194 23.9646 6.75192V9.64836C23.5868 9.55293 23.2013 9.49121 22.8124 9.46393C22.6209 9.44988 22.4435 9.4411 22.3048 9.4411C21.8804 9.44178 21.4567 9.47762 21.0383 9.54824L20.8996 9.56932C20.5279 9.63955 20.1634 9.74362 19.8105 9.88022C19.742 9.90657 19.6788 9.93818 19.6121 9.96804C19.3128 10.0949 19.0263 10.2502 18.7567 10.4318C18.6864 10.4774 18.6214 10.5319 18.5547 10.5811C18.2972 10.7716 18.0583 10.9863 17.8415 11.2222C17.8187 11.2468 17.7906 11.2626 17.7678 11.2889C17.7133 11.3504 17.6799 11.4224 17.629 11.4856C17.5022 11.643 17.3848 11.8078 17.2777 11.9792C17.1131 12.2383 16.9687 12.5096 16.8456 12.7907C15.6189 12.2729 14.2587 12.1609 12.9638 12.471C12.8162 12.5044 12.6792 12.5606 12.537 12.6045L12.3069 12.6748C12.1883 11.2238 11.5714 9.85853 10.5609 8.81052C9.97563 8.23411 9.28178 7.77959 8.51957 7.47326C7.75734 7.16693 6.94193 7.01489 6.12053 7.02593C4.45878 7.08462 2.88646 7.79334 1.74197 8.99959C0.59748 10.2058 -0.0277054 11.8132 0.000942854 13.4757C0.000942854 14.6772 0.0343159 19.9747 0.0694456 24.9491C0.0870104 27.4415 0.102819 29.8672 0.116871 31.6553C0.116871 32.5511 0.12741 33.2941 0.132679 33.8106V34.4095V34.6203C0.0551478 37.1361 0.526606 39.6386 1.51428 41.9536C2.50195 44.2687 3.9821 46.3408 5.85179 48.0258C9.5142 51.1112 14.1743 52.7583 18.9622 52.6594C21.53 52.6225 24.0644 52.0732 26.4172 51.0438C28.7698 50.0143 30.8933 48.5255 32.6627 46.6645C34.653 44.4431 36.3696 41.9912 37.7759 39.361C38.3618 38.2534 39.0381 37.196 39.7976 36.1994C41.6833 34.168 43.7981 32.362 46.0998 30.8175C46.3563 30.6419 46.6039 30.4557 46.834 30.2906C47.4901 29.7833 48.0362 29.1481 48.4393 28.4234C48.8424 27.6989 49.0939 26.8998 49.1789 26.075C49.4073 24.3415 48.958 22.5868 47.9248 21.1762ZM19.5963 16.987C19.5945 16.584 19.6145 16.1811 19.656 15.7802C19.656 15.6907 19.6823 15.6187 19.6929 15.5343C19.7227 15.32 19.7579 15.1181 19.8 14.9371C19.8264 14.823 19.858 14.7193 19.8896 14.6175C19.9312 14.4819 19.9804 14.3487 20.0371 14.2187C20.0652 14.1555 20.0933 14.0852 20.1232 14.029C20.2065 13.8679 20.3097 13.718 20.4306 13.5829L20.4587 13.5565C20.5493 13.4645 20.6508 13.3837 20.7608 13.3159C20.834 13.2672 20.911 13.2243 20.9909 13.1877C21.0278 13.1701 21.0647 13.1561 21.1033 13.142C21.2512 13.0855 21.4042 13.0432 21.56 13.0155H21.5986C21.831 12.9782 22.066 12.96 22.3012 12.9611C22.6459 12.9347 22.9921 12.9874 23.3133 13.1153C23.6344 13.2431 23.9221 13.4427 24.1543 13.6988C24.82 14.6614 25.1214 15.8294 25.0045 16.994V22.3073C25.0045 26.3473 22.9705 26.3473 22.3012 26.3473C20.817 26.3473 20.1495 26.0768 19.8422 25.1511C19.8211 25.0879 19.7982 25.0264 19.7824 24.9579C19.7394 24.7843 19.7071 24.6083 19.6858 24.4309C19.6858 24.3817 19.6718 24.3361 19.6665 24.2834C19.6402 24.041 19.6226 23.774 19.6121 23.4754V23.4157C19.6015 23.0819 19.598 22.7131 19.598 22.3073L19.5963 16.987ZM16.1079 16.3476C16.1079 16.5601 16.0833 16.7621 16.0833 16.987V22.3073V22.9186C16.067 23.8279 16.1478 24.7366 16.3239 25.6288C15.7835 26.0843 15.0988 26.3334 14.3918 26.3314C13.9921 26.3299 13.5966 26.2494 13.2279 26.095C12.8592 25.9406 12.5245 25.7149 12.243 25.4312C11.9615 25.1474 11.7386 24.8109 11.5871 24.4409C11.4357 24.071 11.3585 23.6749 11.3601 23.2752V18.8646C11.3616 18.1315 11.6279 17.4234 12.1101 16.871C12.1956 16.7718 12.2871 16.678 12.3841 16.59C12.4469 16.5322 12.5125 16.4777 12.5809 16.4266C12.6837 16.3497 12.7917 16.2798 12.9041 16.2176C12.9778 16.1755 13.0499 16.1315 13.1271 16.0947C13.2554 16.0381 13.3875 15.9905 13.5224 15.9524C13.592 15.9264 13.6629 15.9043 13.7349 15.8856C14.1401 15.7909 14.5608 15.7831 14.9691 15.8628C15.3775 15.9424 15.7645 16.1077 16.1044 16.3476H16.1079ZM44.0606 27.9685V27.9632C41.5374 29.664 39.2207 31.6529 37.1576 33.8896C36.2446 35.0527 35.4359 36.2942 34.7407 37.5993C33.4734 39.9853 31.9261 42.2118 30.1316 44.2318C28.6901 45.7522 26.9601 46.9703 25.0428 47.8146C23.1252 48.6592 21.0587 49.113 18.9639 49.1499C15.0312 49.2478 11.1969 47.9125 8.17562 45.3928C6.67804 44.0347 5.49668 42.3646 4.71489 40.5003C3.93308 38.636 3.56989 36.6227 3.65092 34.6027V34.3955V33.7965C3.65092 33.2783 3.64038 32.5371 3.63511 31.6395C3.62106 29.8462 3.60525 27.424 3.58768 24.935C3.55255 19.9466 3.51918 14.6719 3.51918 13.4863C3.489 12.7543 3.7428 12.0391 4.22755 11.4898C4.71231 10.9406 5.39052 10.5999 6.12053 10.5389C6.47936 10.5258 6.83719 10.5846 7.17295 10.7119C7.5087 10.8392 7.81557 11.0324 8.0755 11.2801C8.34789 11.5743 8.55827 11.9203 8.69408 12.2975C8.82987 12.6747 8.88831 13.0755 8.86591 13.4757V15.3798C8.20509 16.4222 7.85307 17.6304 7.85067 18.8646V23.291C7.85371 24.2542 8.06977 25.205 8.48337 26.075C8.89695 26.945 9.49786 27.7127 10.243 28.3233C10.2325 28.3767 10.2255 28.4306 10.2219 28.4849C10.2552 28.9493 10.4715 29.3814 10.8233 29.6863C11.175 29.9914 11.6334 30.1442 12.0978 30.1114C14.9702 29.8845 17.8528 29.816 20.7327 29.9059C21.8656 29.9533 22.9599 30.0429 23.991 30.1729C23.8768 30.2238 23.7714 30.266 23.6555 30.3204C19.5242 32.1551 15.9338 35.0208 13.229 38.6426C13.0944 38.8301 12.9981 39.0421 12.9454 39.2667C12.8928 39.4914 12.885 39.7243 12.9223 39.9519C12.9977 40.4118 13.2527 40.8228 13.6313 41.0947C14.0098 41.3666 14.4807 41.4769 14.9405 41.4014C15.4004 41.326 15.8116 41.071 16.0833 40.6925C18.4322 37.564 21.5444 35.0905 25.1222 33.5084C26.3204 32.953 27.5566 32.4835 28.8213 32.1032C29.285 31.9645 29.6539 31.8696 29.9015 31.8099L30.1756 31.7467L30.2388 31.7326H30.2493C30.6038 31.6638 30.9284 31.4874 31.1789 31.2275C31.4295 30.9677 31.5939 30.6368 31.6498 30.2802C31.7056 29.9235 31.6503 29.5583 31.4912 29.2342C31.332 28.9101 31.0768 28.643 30.7605 28.4691C29.6577 27.8916 28.4837 27.4623 27.2686 27.1921C28.1373 25.7146 28.568 24.0204 28.5104 22.3073V16.987C28.5759 15.3708 28.2162 13.7658 27.4671 12.3323V6.75192C27.4495 5.93251 27.7493 5.13801 28.3038 4.53443C28.8584 3.93085 29.6245 3.56489 30.4425 3.51297C30.855 3.51464 31.2626 3.60172 31.6398 3.76875C32.0169 3.93577 32.3552 4.1791 32.6336 4.48341C32.912 4.7877 33.1243 5.14637 33.2573 5.53681C33.3901 5.92724 33.4407 6.34098 33.4057 6.75192V23.4385C33.3739 24.1105 33.5916 24.7705 34.017 25.2916C34.2799 25.5834 34.6198 25.795 34.9978 25.9018C35.3756 26.0088 35.7761 26.0067 36.1529 25.8958C36.491 25.7964 36.8082 25.6362 37.0891 25.4233C37.1839 25.3548 37.2647 25.2898 37.3174 25.2477L37.3877 25.1827L37.407 25.1669C38.6332 24.1443 39.9755 23.2701 41.4065 22.562C42.0713 22.238 42.8317 22.1688 43.5442 22.3671C44.1563 22.4981 44.7105 22.822 45.125 23.291C45.6133 23.9727 45.8214 24.8158 45.7064 25.6464C45.6804 25.9945 45.5855 26.3341 45.4273 26.6453C45.269 26.9566 45.0503 27.233 44.7842 27.4591L44.0606 27.9685Z" fill="#212121"/>
</svg>
