<svg width="27" height="23" viewBox="0 0 27 23" fill="none" xmlns="http://www.w3.org/2000/svg">
<path d="M0.5 1.78889C0.5 1.01533 1.03922 0.5 1.575 0.5H25.425C25.9608 0.5 26.5 1.01533 26.5 1.78889C26.5 2.56245 25.9608 3.07778 25.425 3.07778H1.575C1.03922 3.07778 0.5 2.56245 0.5 1.78889ZM0.5 11.5C0.5 10.7264 1.03922 10.2111 1.575 10.2111H25.425C25.9608 10.2111 26.5 10.7264 26.5 11.5C26.5 12.2736 25.9608 12.7889 25.425 12.7889H1.575C1.03922 12.7889 0.5 12.2736 0.5 11.5ZM0.5 21.2111C0.5 20.4376 1.03922 19.9222 1.575 19.9222H25.425C25.9608 19.9222 26.5 20.4376 26.5 21.2111C26.5 21.9847 25.9608 22.5 25.425 22.5H1.575C1.03922 22.5 0.5 21.9847 0.5 21.2111Z" fill="#A84DFF" stroke="#A84DFF" stroke-linejoin="round"/>
</svg>
