<svg width="50" height="37" viewBox="0 0 50 37" fill="none" xmlns="http://www.w3.org/2000/svg">
<path d="M36.1072 14.0042H29.5421C29.1068 14.0042 28.6893 13.8313 28.3815 13.5235C28.0737 13.2157 27.9008 12.7982 27.9008 12.3629C27.9008 11.9276 28.0737 11.5101 28.3815 11.2023C28.6893 10.8945 29.1068 10.7216 29.5421 10.7216H36.1072C36.5425 10.7216 36.96 10.8945 37.2678 11.2023C37.5756 11.5101 37.7485 11.9276 37.7485 12.3629C37.7485 12.7982 37.5756 13.2157 37.2678 13.5235C36.96 13.8313 36.5425 14.0042 36.1072 14.0042ZM19.6944 10.7216H18.0531V9.08034C18.0531 8.64505 17.8802 8.22758 17.5724 7.91978C17.2646 7.61198 16.8471 7.43906 16.4118 7.43906C15.9766 7.43906 15.5591 7.61198 15.2513 7.91978C14.9435 8.22758 14.7706 8.64505 14.7706 9.08034V10.7216H13.1293C12.694 10.7216 12.2765 10.8945 11.9687 11.2023C11.6609 11.5101 11.488 11.9276 11.488 12.3629C11.488 12.7982 11.6609 13.2157 11.9687 13.5235C12.2765 13.8313 12.694 14.0042 13.1293 14.0042H14.7706V15.6455C14.7706 16.0808 14.9435 16.4982 15.2513 16.806C15.5591 17.1138 15.9766 17.2867 16.4118 17.2867C16.8471 17.2867 17.2646 17.1138 17.5724 16.806C17.8802 16.4982 18.0531 16.0808 18.0531 15.6455V14.0042H19.6944C20.1297 14.0042 20.5472 13.8313 20.855 13.5235C21.1628 13.2157 21.3357 12.7982 21.3357 12.3629C21.3357 11.9276 21.1628 11.5101 20.855 11.2023C20.5472 10.8945 20.1297 10.7216 19.6944 10.7216ZM43.1352 36.0485C41.966 36.2542 40.7646 36.1752 39.6324 35.8184C38.5002 35.4616 37.4707 34.8373 36.6307 33.9985C36.6 33.9678 36.5707 33.9362 36.5429 33.9037L28.1987 24.641L21.049 24.6695L12.693 33.9067C12.6659 33.9382 12.6374 33.9688 12.6077 33.9985C11.4968 35.1089 10.0609 35.8363 8.50848 36.075C6.95606 36.3136 5.36796 36.0512 3.97484 35.3258C2.58172 34.6004 1.45612 33.4498 0.761513 32.0411C0.0669088 30.6323 -0.160529 29.0389 0.112232 27.4921C0.113935 27.4826 0.115638 27.4732 0.117441 27.4638L3.46031 10.2716C3.46251 10.2568 3.46492 10.2418 3.46752 10.227C3.96477 7.37392 5.45415 4.78835 7.67265 2.92682C9.89115 1.06529 12.6961 0.0475429 15.5921 0.0532943L33.6442 0H33.649C36.5302 0.00405257 39.319 1.01723 41.531 2.86353C43.7429 4.70984 45.2383 7.27263 45.7573 10.1067C45.7601 10.1196 45.7642 10.1318 45.7667 10.1448L49.1212 27.465C49.1229 27.474 49.1246 27.483 49.1262 27.4921C49.4641 29.4209 49.023 31.405 47.8999 33.0091C46.7768 34.6131 45.0632 35.7062 43.1352 36.0485ZM33.6424 21.3367C34.8278 21.3372 36.0018 21.1042 37.0972 20.6511C38.1926 20.1979 39.1881 19.5334 40.0267 18.6956C40.8653 17.8577 41.5307 16.8629 41.9848 15.7679C42.439 14.6728 42.673 13.4991 42.6735 12.3137C42.674 11.1282 42.4411 9.95427 41.9879 8.85885C41.5348 7.76344 40.8703 6.76801 40.0324 5.92939C39.1945 5.09077 38.1997 4.4254 37.1047 3.97126C36.0097 3.51711 34.836 3.28309 33.6505 3.28256L15.5969 3.33586C13.4849 3.33042 11.4381 4.06732 9.81431 5.41779C8.19048 6.76826 7.09284 8.64641 6.71322 10.724C6.70881 10.7571 6.7034 10.7903 6.69699 10.8238L3.3426 28.0753C3.19476 28.9303 3.32173 29.8101 3.70526 30.5884C4.0888 31.3667 4.70915 32.0033 5.47721 32.407C6.24527 32.8106 7.1215 32.9604 7.98002 32.8348C8.83854 32.7092 9.63516 32.3148 10.2554 31.7081L19.1008 21.9301C19.2539 21.7608 19.4406 21.6254 19.6491 21.5324C19.8575 21.4394 20.0831 21.3909 20.3113 21.39L33.6424 21.3367ZM45.8957 28.0747L44.1 18.803C42.996 20.5809 41.4569 22.0479 39.6283 23.0656C37.7997 24.0833 35.7418 24.618 33.649 24.6192L32.601 24.6234L38.9839 31.7089C39.6043 32.3154 40.401 32.7096 41.2595 32.8349C42.118 32.9603 42.9941 32.8103 43.762 32.4066C44.53 32.0028 45.1502 31.366 45.5335 30.5877C45.9169 29.8094 46.0437 28.9296 45.8957 28.0747Z" fill="black"/>
</svg>
