<svg width="53" height="54" viewBox="0 0 53 54" fill="none" xmlns="http://www.w3.org/2000/svg">
<path d="M39.0377 26.8272C40.1163 26.3631 41.2784 26.1239 42.4526 26.1244C44.7824 26.1244 47.0168 27.0499 48.6642 28.6974C50.3116 30.3448 51.2371 32.5791 51.2371 34.9089C51.2371 37.2387 50.3116 39.4731 48.6642 41.1205C47.0168 42.7679 44.7824 43.6934 42.4526 43.6934C41.2827 43.6975 40.1242 43.462 39.0486 43.0017" stroke="black" stroke-width="3.29419"/>
<path d="M10.3343 21.0514H39.0376V39.5867C39.0377 42.8874 37.7295 46.0535 35.3996 48.3916C33.0698 50.7297 29.9083 52.049 26.6076 52.0607H22.8083C19.5 52.0607 16.3272 50.7464 13.9878 48.4071C11.6485 46.0678 10.3343 42.895 10.3343 39.5867V21.0514Z" stroke="black" stroke-width="3.29419"/>
<path d="M2 52.0607H48.7555" stroke="black" stroke-width="3.29419" stroke-linecap="round"/>
<path d="M18.2184 15.3524C18.2184 9.86213 22.6106 9.86213 22.6106 4.27299" stroke="black" stroke-width="3.29419" stroke-linecap="round"/>
<path d="M27.3323 15.1767C27.8264 8.44563 32.2077 8.77504 32.7018 2" stroke="black" stroke-width="3.29419" stroke-linecap="round"/>
</svg>
